<?xml version="1.0" encoding="utf-8"?>
<!-- Generator: Adobe Illustrator 24.0.1, SVG Export Plug-In . SVG Version: 6.00 Build 0)  -->
<svg version="1.1" id="Capa_1" xmlns="http://www.w3.org/2000/svg" xmlns:xlink="http://www.w3.org/1999/xlink" x="0px" y="0px"
	 viewBox="0 0 512 512" style="enable-background:new 0 0 512 512;" xml:space="preserve">
<style type="text/css">
	.st0{fill:#66BB00;}
	.st1{fill:#93C40C;}
	.st2{fill:#BDD81D;}
	.st3{fill:#9CDD05;}
	.st4{fill:#C86E59;}
	.st5{fill:#A34F3E;}
</style>
<g>
	<g>
		<g>
			<g>
				<g>
					<path class="st0" d="M286.9,198.6c-15.6-97.4,28.6-162,115.1-187.8c21.4-6.4,40.3-9.1,62.2-10.7c10.1-1.3,18.6,7.7,16.6,17.8
						c-15.1,76.7-31.2,122.3-52.2,147.7c-33.7,40.8-72.8,26-121.5,44.7C298.2,213.7,288.4,208,286.9,198.6L286.9,198.6z"/>
				</g>
			</g>
		</g>
	</g>
	<g>
		<g>
			<g>
				<g>
					<path class="st1" d="M204.9,210.3c-48.7-18.7-87.8-3.8-121.5-44.7c-21-25.4-37.1-71-52.2-147.7c-2-10,6.5-19.1,16.6-17.8
						c121.2,8.6,196.9,76.1,177.2,198.5C223.6,208.1,213.8,213.7,204.9,210.3z"/>
				</g>
			</g>
		</g>
	</g>
	<path class="st2" d="M377.8,133.7c-100,91.6-102.8,155.2-106.1,228.8c-0.2,5.1-0.5,10.2-0.7,15.3c-0.5,9.5-7.7,14.3-15,14.3
		c-7.3,0-14.5-4.8-15-14.3c-0.3-5.1-0.5-10.2-0.7-15.3c-3.3-73.6-6.2-137.2-106.1-228.8c-6.1-5.6-6.5-15.1-0.9-21.2
		c5.6-6.1,15.1-6.5,21.2-0.9c44.8,41.1,83.4,87.6,101.5,146c18.1-58.4,56.7-104.9,101.5-146c6.1-5.6,15.6-5.2,21.2,0.9
		C384.3,118.6,383.9,128.1,377.8,133.7L377.8,133.7z"/>
	<path class="st3" d="M377.8,133.7c-100,91.6-102.8,155.2-106.1,228.8c-0.2,5.1-0.5,10.2-0.7,15.3c-0.5,9.5-7.7,14.3-15,14.3V257.6
		c18.1-58.4,56.7-104.9,101.5-146c6.1-5.6,15.6-5.2,21.2,0.9C384.3,118.6,383.9,128.1,377.8,133.7L377.8,133.7z"/>
	<g>
		<path class="st4" d="M383.1,422.6c-13.2-23.3-40.3-35.3-66-28.9C303.2,374.1,280.5,362,256,362s-47.2,12.1-61.1,31.7
			c-25.7-6.4-52.8,5.5-66,28.9C107.4,426,91,444.6,91,467c0,24.8,20.2,45,45,45h240c24.8,0,45-20.2,45-45
			C421,444.6,404.6,426,383.1,422.6z"/>
	</g>
	<path class="st5" d="M421,467c0,24.8-20.2,45-45,45H256V362c24.5,0,47.2,12.1,61.1,31.7c25.7-6.4,52.8,5.5,66,28.9
		C404.6,426,421,444.6,421,467z"/>
</g>
</svg>
