<?xml version="1.0" encoding="utf-8"?>
<!-- Generator: Adobe Illustrator 24.0.1, SVG Export Plug-In . SVG Version: 6.00 Build 0)  -->
<svg version="1.1" id="Capa_1" xmlns="http://www.w3.org/2000/svg" xmlns:xlink="http://www.w3.org/1999/xlink" x="0px" y="0px"
	 viewBox="0 0 512 512" style="enable-background:new 0 0 512 512;" xml:space="preserve">
<style type="text/css">
	.st0{fill:#6CABD9;}
	.st1{fill:#619FCD;}
</style>
<g>
	<g>
		<path class="st0" d="M375.3,32.8L188.9,74.4c-12.3,2.7-14,19.1-2.7,24.7l35.1,17.2c75.5,37,120.8,94.3,120.7,94.2
			c49.1,58.3,145.8,39.8,166.5-42.8C528.8,88.8,457.4,14.4,375.3,32.8z"/>
		<path class="st1" d="M377.8,136.3c0.1,0.1-63.2-36.5-147-42.9l-39-3c-6.1-0.5-10.2-4.4-11.8-9.2c-2.9,6-1.1,14.1,6.3,17.7
			l35.1,17.2c75.5,37,120.8,94.3,120.7,94.2c49.1,58.3,145.8,39.8,166.5-42.8c6-23.5,3.9-46.6-4.2-67
			C479.7,143,424.8,161.5,377.8,136.3z"/>
		<path class="st0" d="M426.2,336l-113.3-61.6c-9.8-5.3-20.7,4.2-17,14.8l6.6,19c20,57.5,20.3,107.1,20.2,104.9
			c2.5,54.5,63.5,88,110.5,57.1C482.4,437.4,478.2,364.3,426.2,336z"/>
		<path class="st1" d="M364.8,401.2c0.7,2.2-12-45.8-45.7-96.5l-11.2-16.8c-3.4-5.1-2.5-11,0.8-14.8c-8.4-1.2-16,7.1-12.9,16.2
			l6.6,19c20,57.5,20.3,107.1,20.2,104.9c2.5,54.5,63.5,88,110.5,57.1c8.8-5.9,15.9-13.1,21.4-21.1
			C418.6,460.2,376.9,440.7,364.8,401.2z"/>
		<path class="st0" d="M187.4,289.4c-43.3-36.7-91.7-73.9-134.6-152.2l0,0c-8.4-12.2-27.2-7.9-28.9,6.8l-23.2,200
			c-10.3,88.5,77.4,155.1,158.5,124.6C234.6,440.3,249.8,340.2,187.4,289.4z"/>
		<path class="st1" d="M66.1,339.1L38.6,139.6c-0.5-3.6,0.2-6.8,1.6-9.5c-7.6-0.2-15.1,4.9-16.1,13.9l-23.2,200
			c-10.3,88.5,77.4,155.1,158.5,124.6c16.9-6.4,30.7-16.3,41.4-28.5C139.4,449,75.6,407.9,66.1,339.1z"/>
	</g>
</g>
</svg>
